Coordinates
nRows=230
nColumns=2
inDegrees=yes
endheader
time	ankle_angle_r	
6.71976	 18.600464	
6.75302	 18.692734	
6.78629	 18.554688	
6.81956	 18.615723	
6.85282	 18.631409	
6.88609	 18.569614	
6.91935	 18.616192	
6.95262	 18.707413	
6.98589	 18.569988	
7.01915	 18.615667	
7.05242	 18.676605	
7.08569	 18.584955	
7.11895	 18.554688	
7.15222	 18.585205	
7.18548	 18.554688	
7.21875	 18.615723	
7.25202	 18.631714	
7.28528	 18.584375	
7.31855	 18.630981	
7.35181	 18.569946	
7.38508	 18.630981	
7.41835	 18.674326	
7.45161	 18.644928	
7.48488	 18.571356	
7.51815	 18.598957	
7.55141	 18.644638	
7.58468	 18.641142	
7.61794	 18.705479	
7.65121	 18.602356	
7.68448	 18.556677	
7.71774	 18.701017	
7.75101	 18.694199	
7.78427	 18.661499	
7.81754	 18.687263	
7.85081	 18.656553	
7.88407	 18.686878	
7.91734	 18.707275	
7.9506	 18.569946	
7.98387	 18.664358	
8.01714	 18.630981	
8.0504	 18.707275	
8.08367	 18.676758	
8.11694	 18.737793	
8.1502	 18.676758	
8.18347	 18.673319	
8.21673	 18.710812	
8.25	 18.753052	
8.28327	 18.680487	
8.31653	 18.756878	
8.3498	 18.753052	
8.38306	 18.711296	
8.41633	 18.768311	
8.4496	 18.757265	
8.48286	 18.707275	
8.51613	 18.722534	
8.5494	 18.789822	
8.58266	 18.696617	
8.61593	 18.748356	
8.64919	 18.768311	
8.68246	 18.681648	
8.71573	 18.768311	
8.74899	 18.768311	
8.78226	 18.712456	
8.81552	 18.733088	
8.84879	 18.773684	
8.88206	 18.701805	
8.91532	 18.722534	
8.94859	 18.716871	
8.98185	 18.682518	
9.01512	 18.652098	
9.04839	 18.731840	
9.08165	 18.676758	
9.11492	 18.676758	
9.14819	 18.670515	
9.18145	 18.630981	
9.21472	 18.615723	
9.24798	 18.737793	
9.28125	 18.676758	
9.31452	 18.714003	
9.34778	 18.714100	
9.38105	 18.614305	
9.41431	 18.713068	
9.44758	 18.668613	
9.48085	 18.699226	
9.51411	 18.692017	
9.54738	 18.660597	
9.58065	 18.600464	
9.61391	 18.615723	
9.64718	 18.539558	
9.68044	 18.562157	
9.71371	 18.654127	
9.74698	 18.585205	
9.78024	 18.600464	
9.81351	 18.646240	
9.84677	 18.669773	
9.88004	 18.639353	
9.91331	 18.653032	
9.94657	 18.632851	
9.97984	 18.600464	
10.0131	 18.654997	
10.0464	 18.590103	
10.0796	 18.499960	
10.1129	 18.615723	
10.1462	 18.624866	
10.1794	 18.554688	
10.2127	 18.643736	
10.246	 18.625156	
10.2792	 18.642437	
10.3125	 18.625351	
10.3458	 18.596273	
10.379	 18.579767	
10.4123	 18.560028	
10.4456	 18.554688	
10.4788	 18.605427	
10.5121	 18.600359	
10.5454	 18.524565	
10.5786	 18.620581	
10.6119	 18.559448	
10.6452	 18.595800	
10.6784	 18.615723	
10.7117	 18.615723	
10.745	 18.611349	
10.7782	 18.611444	
10.8115	 18.657318	
10.8448	 18.532339	
10.878	 18.600464	
10.9113	 18.646240	
10.9446	 18.588999	
10.9778	 18.608328	
11.0111	 18.718933	
11.0444	 18.581701	
11.0776	 18.585205	
11.1109	 18.615723	
11.1442	 18.573160	
11.1774	 18.563711	
11.2107	 18.634003	
11.244	 18.539429	
11.2772	 18.588032	
11.3105	 18.661499	
11.3437	 18.544697	
11.377	 18.615723	
11.4103	 18.572388	
11.4435	 18.600464	
11.4768	 18.528664	
11.5101	 18.630981	
11.5433	 18.558796	
11.5766	 18.573860	
11.6099	 18.648100	
11.6431	 18.615723	
11.6764	 18.600464	
11.7097	 18.664640	
11.7429	 18.672337	
11.7762	 18.632359	
11.8095	 18.737793	
11.8427	 18.675573	
11.876	 18.648415	
11.9093	 18.601454	
11.9425	 18.601358	
11.9758	 18.634169	
12.0091	 18.556087	
12.0423	 18.616930	
12.0756	 18.662512	
12.1089	 18.600874	
12.1421	 18.555000	
12.1754	 18.646458	
12.2087	 18.615843	
12.2419	 18.585228	
12.2752	 18.691944	
12.3085	 18.645901	
12.3417	 18.630714	
12.375	 18.676031	
12.4083	 18.661959	
12.4415	 18.584091	
12.4748	 18.692671	
12.5081	 18.752302	
12.5413	 18.692863	
12.5746	 18.721590	
12.6079	 18.752012	
12.6411	 18.734383	
12.6744	 18.781103	
12.7077	 18.737793	
12.7409	 18.633835	
12.7742	 18.740841	
12.8075	 18.751432	
12.8407	 18.708992	
12.874	 18.753052	
12.9073	 18.739704	
12.9405	 18.707275	
12.9738	 18.764103	
13.0071	 18.739994	
13.0403	 18.694313	
13.0736	 18.704882	
13.1069	 18.750561	
13.1401	 18.709862	
13.1734	 18.770994	
13.2067	 18.737793	
13.2399	 18.734917	
13.2732	 18.725508	
13.3065	 18.768311	
13.3397	 18.719366	
13.373	 18.747585	
13.4062	 18.753052	
13.4395	 18.630981	
13.4728	 18.699125	
13.506	 18.649891	
13.5393	 18.665516	
13.5726	 18.615839	
13.6058	 18.737793	
13.6391	 18.646240	
13.6724	 18.646240	
13.7056	 18.635212	
13.7389	 18.585205	
13.7722	 18.683168	
13.8054	 18.650761	
13.8387	 18.615723	
13.872	 18.641525	
13.9052	 18.569946	
13.9385	 18.610815	
13.9718	 18.661499	
14.005	 18.569946	
14.0383	 18.564749	
14.0716	 18.559982	
14.1048	 18.692930	
14.1381	 18.625494	
14.1714	 18.692017	
14.2046	 18.692017	
14.2379	 18.630981	
14.2712	 18.682632	
14.3044	 18.609751	
14.3377	 18.551565	
